<mxfile host="app.diagrams.net" agent="Mozilla/5.0 (X11; Ubuntu; Linux x86_64; rv:138.0) Gecko/20100101 Firefox/138.0" version="27.0.4">
  <diagram id="C5RBs43oDa-KdzZeNtuy" name="Page-1">
    <mxGraphModel grid="1" page="1" gridSize="10" guides="1" tooltips="1" connect="1" arrows="1" fold="1" pageScale="1" pageWidth="827" pageHeight="1169" math="0" shadow="0">
      <root>
        <mxCell id="WIyWlLk6GJQsqaUBKTNV-0" />
        <mxCell id="WIyWlLk6GJQsqaUBKTNV-1" parent="WIyWlLk6GJQsqaUBKTNV-0" />
        <mxCell id="t5OOmihuEX9ziYq8HS8Y-0" value="" style="ellipse;whiteSpace=wrap;html=1;dashed=1;fillColor=#dae8fc;strokeColor=#6c8ebf;" vertex="1" parent="WIyWlLk6GJQsqaUBKTNV-1">
          <mxGeometry x="102.5" y="-40" width="760" height="470" as="geometry" />
        </mxCell>
        <mxCell id="t5OOmihuEX9ziYq8HS8Y-5" value="&lt;span style=&quot;color: light-dark(rgb(94, 92, 100), rgb(237, 237, 237));&quot;&gt;Libro Virtual Interactivo de Biología (Web)&lt;/span&gt;" style="text;html=1;align=center;verticalAlign=middle;whiteSpace=wrap;rounded=0;" vertex="1" parent="WIyWlLk6GJQsqaUBKTNV-1">
          <mxGeometry x="365" y="-30" width="235" height="30" as="geometry" />
        </mxCell>
        <mxCell id="t5OOmihuEX9ziYq8HS8Y-6" value="Gestor Estudiante" style="ellipse;whiteSpace=wrap;html=1;" vertex="1" parent="WIyWlLk6GJQsqaUBKTNV-1">
          <mxGeometry x="245" y="20" width="120" height="80" as="geometry" />
        </mxCell>
        <mxCell id="t5OOmihuEX9ziYq8HS8Y-7" value="Gestor de Contenido*" style="ellipse;whiteSpace=wrap;html=1;fillColor=#f8cecc;strokeColor=#b85450;" vertex="1" parent="WIyWlLk6GJQsqaUBKTNV-1">
          <mxGeometry x="450" y="130" width="120" height="80" as="geometry" />
        </mxCell>
        <mxCell id="t5OOmihuEX9ziYq8HS8Y-13" value="Estudiante" style="shape=partialRectangle;whiteSpace=wrap;html=1;left=0;right=0;fillColor=#fff2cc;strokeColor=#d6b656;" vertex="1" parent="WIyWlLk6GJQsqaUBKTNV-1">
          <mxGeometry x="130" y="165" width="120" height="60" as="geometry" />
        </mxCell>
        <mxCell id="t5OOmihuEX9ziYq8HS8Y-15" value="" style="curved=1;endArrow=classic;html=1;rounded=0;entryX=0.5;entryY=0;entryDx=0;entryDy=0;exitX=0;exitY=1;exitDx=0;exitDy=0;" edge="1" parent="WIyWlLk6GJQsqaUBKTNV-1" source="zMyLwXSVM0SvXkapLOIX-44" target="t5OOmihuEX9ziYq8HS8Y-13">
          <mxGeometry width="50" height="50" relative="1" as="geometry">
            <mxPoint x="210" y="125" as="sourcePoint" />
            <mxPoint x="260" y="75" as="targetPoint" />
            <Array as="points">
              <mxPoint x="200" y="150" />
            </Array>
          </mxGeometry>
        </mxCell>
        <mxCell id="t5OOmihuEX9ziYq8HS8Y-16" value="" style="curved=1;endArrow=classic;html=1;rounded=0;entryX=0;entryY=0;entryDx=0;entryDy=0;exitX=0.5;exitY=1;exitDx=0;exitDy=0;" edge="1" parent="WIyWlLk6GJQsqaUBKTNV-1" source="zMyLwXSVM0SvXkapLOIX-40" target="t5OOmihuEX9ziYq8HS8Y-7">
          <mxGeometry width="50" height="50" relative="1" as="geometry">
            <mxPoint x="370" y="280" as="sourcePoint" />
            <mxPoint x="460" y="120" as="targetPoint" />
            <Array as="points">
              <mxPoint x="460" y="120" />
            </Array>
          </mxGeometry>
        </mxCell>
        <mxCell id="t5OOmihuEX9ziYq8HS8Y-17" value="" style="curved=1;endArrow=classic;html=1;rounded=0;entryX=0.5;entryY=0;entryDx=0;entryDy=0;exitX=0.5;exitY=1;exitDx=0;exitDy=0;" edge="1" parent="WIyWlLk6GJQsqaUBKTNV-1" source="zMyLwXSVM0SvXkapLOIX-51" target="t5OOmihuEX9ziYq8HS8Y-7">
          <mxGeometry width="50" height="50" relative="1" as="geometry">
            <mxPoint x="730" y="280" as="sourcePoint" />
            <mxPoint x="580" y="120" as="targetPoint" />
            <Array as="points">
              <mxPoint x="510" y="110" />
            </Array>
          </mxGeometry>
        </mxCell>
        <mxCell id="t5OOmihuEX9ziYq8HS8Y-18" value="Estudiante" style="rounded=0;whiteSpace=wrap;html=1;fillColor=#f5f5f5;fontColor=#333333;strokeColor=#666666;" vertex="1" parent="WIyWlLk6GJQsqaUBKTNV-1">
          <mxGeometry x="270" y="-260" width="120" height="60" as="geometry" />
        </mxCell>
        <mxCell id="t5OOmihuEX9ziYq8HS8Y-19" value="Docente" style="rounded=0;whiteSpace=wrap;html=1;fillColor=#f5f5f5;fontColor=#333333;strokeColor=#666666;" vertex="1" parent="WIyWlLk6GJQsqaUBKTNV-1">
          <mxGeometry x="560" y="-260" width="120" height="60" as="geometry" />
        </mxCell>
        <mxCell id="t5OOmihuEX9ziYq8HS8Y-21" value="Administrador" style="rounded=0;whiteSpace=wrap;html=1;fillColor=#f5f5f5;fontColor=#333333;strokeColor=#666666;" vertex="1" parent="WIyWlLk6GJQsqaUBKTNV-1">
          <mxGeometry x="354" y="490" width="120" height="60" as="geometry" />
        </mxCell>
        <mxCell id="hxz4Wa0Qyug34G_NnNsK-0" value="" style="curved=1;endArrow=classic;html=1;rounded=0;entryX=0;entryY=0;entryDx=0;entryDy=0;exitX=0.5;exitY=1;exitDx=0;exitDy=0;" edge="1" parent="WIyWlLk6GJQsqaUBKTNV-1" source="zMyLwXSVM0SvXkapLOIX-12" target="t5OOmihuEX9ziYq8HS8Y-6">
          <mxGeometry width="50" height="50" relative="1" as="geometry">
            <mxPoint x="180" y="270" as="sourcePoint" />
            <mxPoint x="230" y="220" as="targetPoint" />
            <Array as="points">
              <mxPoint x="260" y="-20" />
            </Array>
          </mxGeometry>
        </mxCell>
        <mxCell id="hxz4Wa0Qyug34G_NnNsK-3" value="" style="curved=1;endArrow=classic;html=1;rounded=0;entryX=0;entryY=1;entryDx=0;entryDy=0;exitX=0.25;exitY=0;exitDx=0;exitDy=0;" edge="1" parent="WIyWlLk6GJQsqaUBKTNV-1" source="zMyLwXSVM0SvXkapLOIX-65" target="zMyLwXSVM0SvXkapLOIX-5">
          <mxGeometry width="50" height="50" relative="1" as="geometry">
            <mxPoint x="440.0000000000001" y="410" as="sourcePoint" />
            <mxPoint x="465" y="390" as="targetPoint" />
            <Array as="points">
              <mxPoint x="320" y="390" />
            </Array>
          </mxGeometry>
        </mxCell>
        <mxCell id="zMyLwXSVM0SvXkapLOIX-0" value="Contenido" style="shape=partialRectangle;whiteSpace=wrap;html=1;left=0;right=0;fillColor=#fff2cc;strokeColor=#d6b656;" vertex="1" parent="WIyWlLk6GJQsqaUBKTNV-1">
          <mxGeometry x="570" y="330" width="120" height="60" as="geometry" />
        </mxCell>
        <mxCell id="zMyLwXSVM0SvXkapLOIX-1" value="Gestor Docente" style="ellipse;whiteSpace=wrap;html=1;" vertex="1" parent="WIyWlLk6GJQsqaUBKTNV-1">
          <mxGeometry x="540" width="120" height="80" as="geometry" />
        </mxCell>
        <mxCell id="zMyLwXSVM0SvXkapLOIX-2" value="Docente" style="shape=partialRectangle;whiteSpace=wrap;html=1;left=0;right=0;fillColor=#fff2cc;strokeColor=#d6b656;" vertex="1" parent="WIyWlLk6GJQsqaUBKTNV-1">
          <mxGeometry x="720" y="130" width="120" height="60" as="geometry" />
        </mxCell>
        <mxCell id="zMyLwXSVM0SvXkapLOIX-3" value="" style="curved=1;endArrow=classic;html=1;rounded=0;entryX=0.75;entryY=0;entryDx=0;entryDy=0;exitX=1;exitY=0.5;exitDx=0;exitDy=0;" edge="1" parent="WIyWlLk6GJQsqaUBKTNV-1" source="zMyLwXSVM0SvXkapLOIX-1" target="zMyLwXSVM0SvXkapLOIX-47">
          <mxGeometry width="50" height="50" relative="1" as="geometry">
            <mxPoint x="822.5" y="15" as="sourcePoint" />
            <mxPoint x="765.5" y="105" as="targetPoint" />
            <Array as="points">
              <mxPoint x="690" y="60" />
            </Array>
          </mxGeometry>
        </mxCell>
        <mxCell id="zMyLwXSVM0SvXkapLOIX-4" value="" style="curved=1;endArrow=classic;html=1;rounded=0;entryX=1;entryY=1;entryDx=0;entryDy=0;exitX=0.5;exitY=0;exitDx=0;exitDy=0;" edge="1" parent="WIyWlLk6GJQsqaUBKTNV-1" source="zMyLwXSVM0SvXkapLOIX-57" target="t5OOmihuEX9ziYq8HS8Y-7">
          <mxGeometry width="50" height="50" relative="1" as="geometry">
            <mxPoint x="368" y="350" as="sourcePoint" />
            <mxPoint x="414" y="210" as="targetPoint" />
            <Array as="points" />
          </mxGeometry>
        </mxCell>
        <mxCell id="zMyLwXSVM0SvXkapLOIX-5" value="Gestor Capítulo" style="ellipse;whiteSpace=wrap;html=1;" vertex="1" parent="WIyWlLk6GJQsqaUBKTNV-1">
          <mxGeometry x="310" y="290" width="120" height="80" as="geometry" />
        </mxCell>
        <mxCell id="zMyLwXSVM0SvXkapLOIX-6" value="" style="curved=1;endArrow=classic;html=1;rounded=0;entryX=0.5;entryY=0;entryDx=0;entryDy=0;exitX=0.25;exitY=1;exitDx=0;exitDy=0;" edge="1" parent="WIyWlLk6GJQsqaUBKTNV-1" source="zMyLwXSVM0SvXkapLOIX-62" target="zMyLwXSVM0SvXkapLOIX-5">
          <mxGeometry width="50" height="50" relative="1" as="geometry">
            <mxPoint x="450" y="180" as="sourcePoint" />
            <mxPoint x="393" y="270" as="targetPoint" />
            <Array as="points">
              <mxPoint x="350" y="260" />
            </Array>
          </mxGeometry>
        </mxCell>
        <mxCell id="zMyLwXSVM0SvXkapLOIX-7" value="" style="curved=1;endArrow=classic;html=1;rounded=0;entryX=1;entryY=0;entryDx=0;entryDy=0;exitX=0.5;exitY=1;exitDx=0;exitDy=0;" edge="1" parent="WIyWlLk6GJQsqaUBKTNV-1" source="zMyLwXSVM0SvXkapLOIX-16" target="t5OOmihuEX9ziYq8HS8Y-6">
          <mxGeometry width="50" height="50" relative="1" as="geometry">
            <mxPoint x="350" y="-120" as="sourcePoint" />
            <mxPoint x="355" y="30" as="targetPoint" />
            <Array as="points">
              <mxPoint x="400" y="-30" />
            </Array>
          </mxGeometry>
        </mxCell>
        <mxCell id="zMyLwXSVM0SvXkapLOIX-8" value="" style="curved=1;endArrow=classic;html=1;rounded=0;entryX=0.5;entryY=1;entryDx=0;entryDy=0;exitX=0.5;exitY=0;exitDx=0;exitDy=0;" edge="1" parent="WIyWlLk6GJQsqaUBKTNV-1" source="zMyLwXSVM0SvXkapLOIX-14" target="t5OOmihuEX9ziYq8HS8Y-18">
          <mxGeometry width="50" height="50" relative="1" as="geometry">
            <mxPoint x="320" y="-120" as="sourcePoint" />
            <mxPoint x="313" y="42" as="targetPoint" />
            <Array as="points" />
          </mxGeometry>
        </mxCell>
        <mxCell id="zMyLwXSVM0SvXkapLOIX-9" value="" style="curved=1;endArrow=classic;html=1;rounded=0;entryX=0.5;entryY=1;entryDx=0;entryDy=0;exitX=0.5;exitY=0;exitDx=0;exitDy=0;" edge="1" parent="WIyWlLk6GJQsqaUBKTNV-1" source="zMyLwXSVM0SvXkapLOIX-27" target="t5OOmihuEX9ziYq8HS8Y-19">
          <mxGeometry width="50" height="50" relative="1" as="geometry">
            <mxPoint x="720" y="-132" as="sourcePoint" />
            <mxPoint x="648" y="20" as="targetPoint" />
            <Array as="points" />
          </mxGeometry>
        </mxCell>
        <mxCell id="zMyLwXSVM0SvXkapLOIX-11" value="" style="curved=1;endArrow=classic;html=1;rounded=0;entryX=0.5;entryY=0;entryDx=0;entryDy=0;exitX=1;exitY=1;exitDx=0;exitDy=0;" edge="1" parent="WIyWlLk6GJQsqaUBKTNV-1" source="zMyLwXSVM0SvXkapLOIX-5" target="zMyLwXSVM0SvXkapLOIX-64">
          <mxGeometry width="50" height="50" relative="1" as="geometry">
            <mxPoint x="350" y="490" as="sourcePoint" />
            <mxPoint x="487.68000000000006" y="411.68000000000006" as="targetPoint" />
            <Array as="points">
              <mxPoint x="430" y="380" />
            </Array>
          </mxGeometry>
        </mxCell>
        <mxCell id="zMyLwXSVM0SvXkapLOIX-13" value="" style="curved=1;endArrow=classic;html=1;rounded=0;entryX=0.5;entryY=0;entryDx=0;entryDy=0;exitX=0.25;exitY=1;exitDx=0;exitDy=0;" edge="1" parent="WIyWlLk6GJQsqaUBKTNV-1" source="t5OOmihuEX9ziYq8HS8Y-18" target="zMyLwXSVM0SvXkapLOIX-12">
          <mxGeometry width="50" height="50" relative="1" as="geometry">
            <mxPoint x="300" y="-200" as="sourcePoint" />
            <mxPoint x="303" y="32" as="targetPoint" />
            <Array as="points">
              <mxPoint x="255" y="-150" />
            </Array>
          </mxGeometry>
        </mxCell>
        <mxCell id="zMyLwXSVM0SvXkapLOIX-12" value="Datos" style="text;html=1;align=center;verticalAlign=middle;whiteSpace=wrap;rounded=0;" vertex="1" parent="WIyWlLk6GJQsqaUBKTNV-1">
          <mxGeometry x="200" y="-100" width="110" height="30" as="geometry" />
        </mxCell>
        <mxCell id="zMyLwXSVM0SvXkapLOIX-15" value="" style="curved=1;endArrow=classic;html=1;rounded=0;entryX=0.5;entryY=1;entryDx=0;entryDy=0;exitX=0.5;exitY=0;exitDx=0;exitDy=0;" edge="1" parent="WIyWlLk6GJQsqaUBKTNV-1" source="t5OOmihuEX9ziYq8HS8Y-6" target="zMyLwXSVM0SvXkapLOIX-14">
          <mxGeometry width="50" height="50" relative="1" as="geometry">
            <mxPoint x="345" y="20" as="sourcePoint" />
            <mxPoint x="330" y="-200" as="targetPoint" />
            <Array as="points" />
          </mxGeometry>
        </mxCell>
        <mxCell id="zMyLwXSVM0SvXkapLOIX-14" value="Capitulo" style="text;html=1;align=center;verticalAlign=middle;whiteSpace=wrap;rounded=0;" vertex="1" parent="WIyWlLk6GJQsqaUBKTNV-1">
          <mxGeometry x="260" y="-140" width="145" height="30" as="geometry" />
        </mxCell>
        <mxCell id="zMyLwXSVM0SvXkapLOIX-17" value="" style="curved=1;endArrow=classic;html=1;rounded=0;entryX=0.5;entryY=0;entryDx=0;entryDy=0;exitX=0.75;exitY=1;exitDx=0;exitDy=0;" edge="1" parent="WIyWlLk6GJQsqaUBKTNV-1" source="t5OOmihuEX9ziYq8HS8Y-18" target="zMyLwXSVM0SvXkapLOIX-16">
          <mxGeometry width="50" height="50" relative="1" as="geometry">
            <mxPoint x="360" y="-200" as="sourcePoint" />
            <mxPoint x="387" y="32" as="targetPoint" />
            <Array as="points">
              <mxPoint x="410" y="-140" />
            </Array>
          </mxGeometry>
        </mxCell>
        <mxCell id="zMyLwXSVM0SvXkapLOIX-16" value="&lt;span data-end=&quot;2536&quot; data-start=&quot;2498&quot;&gt;Respuestas de cuestionarios&lt;/span&gt;" style="text;html=1;align=center;verticalAlign=middle;whiteSpace=wrap;rounded=0;" vertex="1" parent="WIyWlLk6GJQsqaUBKTNV-1">
          <mxGeometry x="340" y="-80" width="115" height="30" as="geometry" />
        </mxCell>
        <mxCell id="zMyLwXSVM0SvXkapLOIX-18" value="" style="curved=1;endArrow=classic;html=1;rounded=0;entryX=0.587;entryY=1.039;entryDx=0;entryDy=0;exitX=0.75;exitY=0;exitDx=0;exitDy=0;entryPerimeter=0;" edge="1" parent="WIyWlLk6GJQsqaUBKTNV-1" source="t5OOmihuEX9ziYq8HS8Y-13" target="zMyLwXSVM0SvXkapLOIX-44">
          <mxGeometry width="50" height="50" relative="1" as="geometry">
            <mxPoint x="405" y="100" as="sourcePoint" />
            <mxPoint x="348" y="190" as="targetPoint" />
            <Array as="points">
              <mxPoint x="230" y="160" />
            </Array>
          </mxGeometry>
        </mxCell>
        <mxCell id="zMyLwXSVM0SvXkapLOIX-19" value="" style="curved=1;endArrow=classic;html=1;rounded=0;entryX=1;entryY=1;entryDx=0;entryDy=0;exitX=0.36;exitY=0.02;exitDx=0;exitDy=0;exitPerimeter=0;" edge="1" parent="WIyWlLk6GJQsqaUBKTNV-1" source="zMyLwXSVM0SvXkapLOIX-42" target="t5OOmihuEX9ziYq8HS8Y-6">
          <mxGeometry width="50" height="50" relative="1" as="geometry">
            <mxPoint x="415" y="70" as="sourcePoint" />
            <mxPoint x="488" y="142" as="targetPoint" />
            <Array as="points" />
          </mxGeometry>
        </mxCell>
        <mxCell id="zMyLwXSVM0SvXkapLOIX-20" value="" style="curved=1;endArrow=classic;html=1;rounded=0;entryX=0.5;entryY=1;entryDx=0;entryDy=0;exitX=0.5;exitY=0;exitDx=0;exitDy=0;" edge="1" parent="WIyWlLk6GJQsqaUBKTNV-1" source="zMyLwXSVM0SvXkapLOIX-53" target="zMyLwXSVM0SvXkapLOIX-1">
          <mxGeometry width="50" height="50" relative="1" as="geometry">
            <mxPoint x="568" y="78" as="sourcePoint" />
            <mxPoint x="530" y="130" as="targetPoint" />
            <Array as="points">
              <mxPoint x="600" y="90" />
            </Array>
          </mxGeometry>
        </mxCell>
        <mxCell id="zMyLwXSVM0SvXkapLOIX-22" value="" style="curved=1;endArrow=classic;html=1;rounded=0;entryX=0.384;entryY=0.979;entryDx=0;entryDy=0;exitX=0.607;exitY=0.033;exitDx=0;exitDy=0;entryPerimeter=0;exitPerimeter=0;" edge="1" parent="WIyWlLk6GJQsqaUBKTNV-1" source="zMyLwXSVM0SvXkapLOIX-60" target="t5OOmihuEX9ziYq8HS8Y-7">
          <mxGeometry width="50" height="50" relative="1" as="geometry">
            <mxPoint x="488" y="198" as="sourcePoint" />
            <mxPoint x="424" y="290" as="targetPoint" />
            <Array as="points" />
          </mxGeometry>
        </mxCell>
        <mxCell id="zMyLwXSVM0SvXkapLOIX-25" value="&lt;em data-end=&quot;2653&quot; data-start=&quot;2606&quot;&gt;Contenido&lt;/em&gt;" style="text;html=1;align=center;verticalAlign=middle;whiteSpace=wrap;rounded=0;" vertex="1" parent="WIyWlLk6GJQsqaUBKTNV-1">
          <mxGeometry x="455" y="-120" width="150" height="30" as="geometry" />
        </mxCell>
        <mxCell id="zMyLwXSVM0SvXkapLOIX-28" value="" style="curved=1;endArrow=classic;html=1;rounded=0;entryX=0.5;entryY=1;entryDx=0;entryDy=0;exitX=0.5;exitY=0;exitDx=0;exitDy=0;" edge="1" parent="WIyWlLk6GJQsqaUBKTNV-1" source="zMyLwXSVM0SvXkapLOIX-1" target="zMyLwXSVM0SvXkapLOIX-27">
          <mxGeometry width="50" height="50" relative="1" as="geometry">
            <mxPoint x="600" as="sourcePoint" />
            <mxPoint x="620" y="-200" as="targetPoint" />
            <Array as="points">
              <mxPoint x="620" y="-30" />
            </Array>
          </mxGeometry>
        </mxCell>
        <mxCell id="zMyLwXSVM0SvXkapLOIX-27" value="&lt;em data-end=&quot;2596&quot; data-start=&quot;2562&quot;&gt;Reportes de progreso&lt;/em&gt;" style="text;html=1;align=center;verticalAlign=middle;whiteSpace=wrap;rounded=0;" vertex="1" parent="WIyWlLk6GJQsqaUBKTNV-1">
          <mxGeometry x="560" y="-90" width="120" height="30" as="geometry" />
        </mxCell>
        <mxCell id="zMyLwXSVM0SvXkapLOIX-29" value="Datos" style="text;html=1;align=center;verticalAlign=middle;whiteSpace=wrap;rounded=0;" vertex="1" parent="WIyWlLk6GJQsqaUBKTNV-1">
          <mxGeometry x="640" y="-100" width="110" height="30" as="geometry" />
        </mxCell>
        <mxCell id="zMyLwXSVM0SvXkapLOIX-32" value="" style="curved=1;endArrow=classic;html=1;rounded=0;entryX=0.5;entryY=1;entryDx=0;entryDy=0;exitX=0.25;exitY=0;exitDx=0;exitDy=0;" edge="1" parent="WIyWlLk6GJQsqaUBKTNV-1" source="t5OOmihuEX9ziYq8HS8Y-21" target="zMyLwXSVM0SvXkapLOIX-65">
          <mxGeometry width="50" height="50" relative="1" as="geometry">
            <mxPoint x="384" y="490" as="sourcePoint" />
            <mxPoint x="440.0000000000001" y="440" as="targetPoint" />
            <Array as="points">
              <mxPoint x="360" y="470" />
            </Array>
          </mxGeometry>
        </mxCell>
        <mxCell id="zMyLwXSVM0SvXkapLOIX-33" value="" style="curved=1;endArrow=classic;html=1;rounded=0;entryX=0.75;entryY=0;entryDx=0;entryDy=0;exitX=0.5;exitY=1;exitDx=0;exitDy=0;" edge="1" parent="WIyWlLk6GJQsqaUBKTNV-1" source="zMyLwXSVM0SvXkapLOIX-64" target="t5OOmihuEX9ziYq8HS8Y-21">
          <mxGeometry width="50" height="50" relative="1" as="geometry">
            <mxPoint x="486.32000000000016" y="440.7199999999998" as="sourcePoint" />
            <mxPoint x="540" y="544" as="targetPoint" />
            <Array as="points">
              <mxPoint x="440" y="460" />
            </Array>
          </mxGeometry>
        </mxCell>
        <mxCell id="zMyLwXSVM0SvXkapLOIX-34" value="" style="curved=1;endArrow=classic;html=1;rounded=0;entryX=0.25;entryY=1;entryDx=0;entryDy=0;exitX=0.5;exitY=0;exitDx=0;exitDy=0;" edge="1" parent="WIyWlLk6GJQsqaUBKTNV-1" source="zMyLwXSVM0SvXkapLOIX-25" target="t5OOmihuEX9ziYq8HS8Y-19">
          <mxGeometry width="50" height="50" relative="1" as="geometry">
            <mxPoint x="540" y="-70" as="sourcePoint" />
            <mxPoint x="540" y="-180" as="targetPoint" />
            <Array as="points">
              <mxPoint x="540" y="-170" />
            </Array>
          </mxGeometry>
        </mxCell>
        <mxCell id="zMyLwXSVM0SvXkapLOIX-35" value="" style="curved=1;endArrow=classic;html=1;rounded=0;entryX=0.5;entryY=1;entryDx=0;entryDy=0;exitX=0;exitY=0;exitDx=0;exitDy=0;" edge="1" parent="WIyWlLk6GJQsqaUBKTNV-1" source="zMyLwXSVM0SvXkapLOIX-1" target="zMyLwXSVM0SvXkapLOIX-25">
          <mxGeometry width="50" height="50" relative="1" as="geometry">
            <mxPoint x="460" y="10" as="sourcePoint" />
            <mxPoint x="520" y="-70" as="targetPoint" />
            <Array as="points">
              <mxPoint x="530" y="-30" />
            </Array>
          </mxGeometry>
        </mxCell>
        <mxCell id="zMyLwXSVM0SvXkapLOIX-36" value="" style="curved=1;endArrow=classic;html=1;rounded=0;entryX=0.5;entryY=0;entryDx=0;entryDy=0;exitX=0.75;exitY=1;exitDx=0;exitDy=0;" edge="1" parent="WIyWlLk6GJQsqaUBKTNV-1" source="t5OOmihuEX9ziYq8HS8Y-19" target="zMyLwXSVM0SvXkapLOIX-29">
          <mxGeometry width="50" height="50" relative="1" as="geometry">
            <mxPoint x="700" y="-160" as="sourcePoint" />
            <mxPoint x="820" y="-70" as="targetPoint" />
            <Array as="points">
              <mxPoint x="710" y="-150" />
            </Array>
          </mxGeometry>
        </mxCell>
        <mxCell id="zMyLwXSVM0SvXkapLOIX-37" value="" style="curved=1;endArrow=classic;html=1;rounded=0;entryX=1;entryY=0;entryDx=0;entryDy=0;exitX=0.5;exitY=1;exitDx=0;exitDy=0;" edge="1" parent="WIyWlLk6GJQsqaUBKTNV-1" source="zMyLwXSVM0SvXkapLOIX-29" target="zMyLwXSVM0SvXkapLOIX-1">
          <mxGeometry width="50" height="50" relative="1" as="geometry">
            <mxPoint x="700" y="-65" as="sourcePoint" />
            <mxPoint x="745" y="35" as="targetPoint" />
            <Array as="points">
              <mxPoint x="690" y="-30" />
            </Array>
          </mxGeometry>
        </mxCell>
        <mxCell id="zMyLwXSVM0SvXkapLOIX-38" value="*El gestor de contenido tendra dos submodulos, uno para cuestionarios y otro para contenido" style="rounded=0;whiteSpace=wrap;html=1;fillColor=#f8cecc;strokeColor=#b85450;" vertex="1" parent="WIyWlLk6GJQsqaUBKTNV-1">
          <mxGeometry x="790" y="470" width="210" height="110" as="geometry" />
        </mxCell>
        <mxCell id="zMyLwXSVM0SvXkapLOIX-39" value="" style="curved=1;endArrow=classic;html=1;rounded=0;entryX=1;entryY=1;entryDx=0;entryDy=0;exitX=0;exitY=0.25;exitDx=0;exitDy=0;" edge="1" parent="WIyWlLk6GJQsqaUBKTNV-1" source="zMyLwXSVM0SvXkapLOIX-47" target="zMyLwXSVM0SvXkapLOIX-1">
          <mxGeometry width="50" height="50" relative="1" as="geometry">
            <mxPoint x="670" y="50" as="sourcePoint" />
            <mxPoint x="790" y="140" as="targetPoint" />
            <Array as="points" />
          </mxGeometry>
        </mxCell>
        <mxCell id="zMyLwXSVM0SvXkapLOIX-41" value="" style="curved=1;endArrow=classic;html=1;rounded=0;entryX=0.25;entryY=0;entryDx=0;entryDy=0;exitX=1;exitY=0.5;exitDx=0;exitDy=0;" edge="1" parent="WIyWlLk6GJQsqaUBKTNV-1" source="t5OOmihuEX9ziYq8HS8Y-6" target="zMyLwXSVM0SvXkapLOIX-40">
          <mxGeometry width="50" height="50" relative="1" as="geometry">
            <mxPoint x="405" y="60" as="sourcePoint" />
            <mxPoint x="468" y="142" as="targetPoint" />
            <Array as="points" />
          </mxGeometry>
        </mxCell>
        <mxCell id="zMyLwXSVM0SvXkapLOIX-40" value="Datos y Respuestas" style="text;html=1;align=center;verticalAlign=middle;whiteSpace=wrap;rounded=0;" vertex="1" parent="WIyWlLk6GJQsqaUBKTNV-1">
          <mxGeometry x="380" y="80" width="115" height="30" as="geometry" />
        </mxCell>
        <mxCell id="zMyLwXSVM0SvXkapLOIX-43" value="" style="curved=1;endArrow=classic;html=1;rounded=0;entryX=0.579;entryY=1.013;entryDx=0;entryDy=0;exitX=0;exitY=0.5;exitDx=0;exitDy=0;entryPerimeter=0;" edge="1" parent="WIyWlLk6GJQsqaUBKTNV-1" source="t5OOmihuEX9ziYq8HS8Y-7" target="zMyLwXSVM0SvXkapLOIX-42">
          <mxGeometry width="50" height="50" relative="1" as="geometry">
            <mxPoint x="450" y="170" as="sourcePoint" />
            <mxPoint x="347" y="88" as="targetPoint" />
            <Array as="points">
              <mxPoint x="420" y="170" />
            </Array>
          </mxGeometry>
        </mxCell>
        <mxCell id="zMyLwXSVM0SvXkapLOIX-42" value="Capitulo" style="text;html=1;align=center;verticalAlign=middle;whiteSpace=wrap;rounded=0;" vertex="1" parent="WIyWlLk6GJQsqaUBKTNV-1">
          <mxGeometry x="310" y="120" width="145" height="30" as="geometry" />
        </mxCell>
        <mxCell id="zMyLwXSVM0SvXkapLOIX-45" value="" style="curved=1;endArrow=classic;html=1;rounded=0;entryX=0.345;entryY=0.039;entryDx=0;entryDy=0;exitX=0;exitY=1;exitDx=0;exitDy=0;entryPerimeter=0;" edge="1" parent="WIyWlLk6GJQsqaUBKTNV-1" source="t5OOmihuEX9ziYq8HS8Y-6" target="zMyLwXSVM0SvXkapLOIX-44">
          <mxGeometry width="50" height="50" relative="1" as="geometry">
            <mxPoint x="263" y="88" as="sourcePoint" />
            <mxPoint x="220" y="165" as="targetPoint" />
            <Array as="points">
              <mxPoint x="240" y="100" />
            </Array>
          </mxGeometry>
        </mxCell>
        <mxCell id="zMyLwXSVM0SvXkapLOIX-44" value="Datos" style="text;html=1;align=center;verticalAlign=middle;whiteSpace=wrap;rounded=0;" vertex="1" parent="WIyWlLk6GJQsqaUBKTNV-1">
          <mxGeometry x="210" y="120" width="50" height="20" as="geometry" />
        </mxCell>
        <mxCell id="zMyLwXSVM0SvXkapLOIX-46" value="" style="curved=1;endArrow=classic;html=1;rounded=0;entryX=0.587;entryY=1.039;entryDx=0;entryDy=0;exitX=0.75;exitY=0;exitDx=0;exitDy=0;entryPerimeter=0;" edge="1" parent="WIyWlLk6GJQsqaUBKTNV-1" source="zMyLwXSVM0SvXkapLOIX-44">
          <mxGeometry width="50" height="50" relative="1" as="geometry">
            <mxPoint x="250" y="120" as="sourcePoint" />
            <mxPoint x="275" y="96" as="targetPoint" />
            <Array as="points">
              <mxPoint x="270" y="105" />
            </Array>
          </mxGeometry>
        </mxCell>
        <mxCell id="zMyLwXSVM0SvXkapLOIX-49" value="" style="curved=1;endArrow=classic;html=1;rounded=0;entryX=0.25;entryY=1;entryDx=0;entryDy=0;exitX=0.25;exitY=0;exitDx=0;exitDy=0;" edge="1" parent="WIyWlLk6GJQsqaUBKTNV-1" source="zMyLwXSVM0SvXkapLOIX-2" target="zMyLwXSVM0SvXkapLOIX-47">
          <mxGeometry width="50" height="50" relative="1" as="geometry">
            <mxPoint x="750" y="130" as="sourcePoint" />
            <mxPoint x="642" y="68" as="targetPoint" />
            <Array as="points">
              <mxPoint x="720" y="120" />
            </Array>
          </mxGeometry>
        </mxCell>
        <mxCell id="zMyLwXSVM0SvXkapLOIX-47" value="Datos" style="text;html=1;align=center;verticalAlign=middle;whiteSpace=wrap;rounded=0;" vertex="1" parent="WIyWlLk6GJQsqaUBKTNV-1">
          <mxGeometry x="670" y="80" width="60" height="20" as="geometry" />
        </mxCell>
        <mxCell id="zMyLwXSVM0SvXkapLOIX-50" value="" style="curved=1;endArrow=classic;html=1;rounded=0;exitX=1;exitY=0.5;exitDx=0;exitDy=0;" edge="1" parent="WIyWlLk6GJQsqaUBKTNV-1" source="zMyLwXSVM0SvXkapLOIX-47">
          <mxGeometry width="50" height="50" relative="1" as="geometry">
            <mxPoint x="730" y="90" as="sourcePoint" />
            <mxPoint x="780" y="130" as="targetPoint" />
            <Array as="points">
              <mxPoint x="760" y="110" />
            </Array>
          </mxGeometry>
        </mxCell>
        <mxCell id="zMyLwXSVM0SvXkapLOIX-52" value="" style="curved=1;endArrow=classic;html=1;rounded=0;entryX=0.75;entryY=0;entryDx=0;entryDy=0;exitX=0;exitY=1;exitDx=0;exitDy=0;" edge="1" parent="WIyWlLk6GJQsqaUBKTNV-1" source="zMyLwXSVM0SvXkapLOIX-1" target="zMyLwXSVM0SvXkapLOIX-51">
          <mxGeometry width="50" height="50" relative="1" as="geometry">
            <mxPoint x="558" y="68" as="sourcePoint" />
            <mxPoint x="510" y="130" as="targetPoint" />
            <Array as="points" />
          </mxGeometry>
        </mxCell>
        <mxCell id="zMyLwXSVM0SvXkapLOIX-51" value="Datos" style="text;html=1;align=center;verticalAlign=middle;whiteSpace=wrap;rounded=0;" vertex="1" parent="WIyWlLk6GJQsqaUBKTNV-1">
          <mxGeometry x="500" y="80" width="40" height="20" as="geometry" />
        </mxCell>
        <mxCell id="zMyLwXSVM0SvXkapLOIX-54" value="" style="curved=1;endArrow=classic;html=1;rounded=0;entryX=0.5;entryY=1;entryDx=0;entryDy=0;exitX=1;exitY=0;exitDx=0;exitDy=0;" edge="1" parent="WIyWlLk6GJQsqaUBKTNV-1" source="t5OOmihuEX9ziYq8HS8Y-7" target="zMyLwXSVM0SvXkapLOIX-53">
          <mxGeometry width="50" height="50" relative="1" as="geometry">
            <mxPoint x="552" y="142" as="sourcePoint" />
            <mxPoint x="600" y="80" as="targetPoint" />
            <Array as="points" />
          </mxGeometry>
        </mxCell>
        <mxCell id="zMyLwXSVM0SvXkapLOIX-53" value="Datos y Respuestas" style="text;html=1;align=center;verticalAlign=middle;whiteSpace=wrap;rounded=0;" vertex="1" parent="WIyWlLk6GJQsqaUBKTNV-1">
          <mxGeometry x="540" y="100" width="115" height="20" as="geometry" />
        </mxCell>
        <mxCell id="zMyLwXSVM0SvXkapLOIX-56" value="" style="curved=1;endArrow=classic;html=1;rounded=0;exitX=0.66;exitY=0.99;exitDx=0;exitDy=0;exitPerimeter=0;entryX=0.286;entryY=-0.011;entryDx=0;entryDy=0;entryPerimeter=0;" edge="1" parent="WIyWlLk6GJQsqaUBKTNV-1" source="t5OOmihuEX9ziYq8HS8Y-7" target="zMyLwXSVM0SvXkapLOIX-57">
          <mxGeometry width="50" height="50" relative="1" as="geometry">
            <mxPoint x="578" y="360" as="sourcePoint" />
            <mxPoint x="500" y="228" as="targetPoint" />
            <Array as="points">
              <mxPoint x="530" y="230" />
            </Array>
          </mxGeometry>
        </mxCell>
        <mxCell id="zMyLwXSVM0SvXkapLOIX-58" value="" style="curved=1;endArrow=classic;html=1;rounded=0;entryX=0.575;entryY=0.973;entryDx=0;entryDy=0;exitX=0.5;exitY=0;exitDx=0;exitDy=0;entryPerimeter=0;" edge="1" parent="WIyWlLk6GJQsqaUBKTNV-1" source="zMyLwXSVM0SvXkapLOIX-0" target="zMyLwXSVM0SvXkapLOIX-57">
          <mxGeometry width="50" height="50" relative="1" as="geometry">
            <mxPoint x="630" y="330" as="sourcePoint" />
            <mxPoint x="552" y="198" as="targetPoint" />
            <Array as="points" />
          </mxGeometry>
        </mxCell>
        <mxCell id="zMyLwXSVM0SvXkapLOIX-57" value="&lt;em data-end=&quot;2753&quot; data-start=&quot;2707&quot;&gt;Modelos 3D, textos y simulaciones&lt;/em&gt;" style="text;html=1;align=center;verticalAlign=middle;whiteSpace=wrap;rounded=0;" vertex="1" parent="WIyWlLk6GJQsqaUBKTNV-1">
          <mxGeometry x="495" y="250" width="190" height="30" as="geometry" />
        </mxCell>
        <mxCell id="zMyLwXSVM0SvXkapLOIX-59" value="" style="curved=1;endArrow=classic;html=1;rounded=0;exitX=0.353;exitY=0.978;exitDx=0;exitDy=0;exitPerimeter=0;entryX=0.25;entryY=0;entryDx=0;entryDy=0;" edge="1" parent="WIyWlLk6GJQsqaUBKTNV-1" source="zMyLwXSVM0SvXkapLOIX-57" target="zMyLwXSVM0SvXkapLOIX-0">
          <mxGeometry width="50" height="50" relative="1" as="geometry">
            <mxPoint x="560" y="289" as="sourcePoint" />
            <mxPoint x="575" y="330" as="targetPoint" />
            <Array as="points">
              <mxPoint x="580" y="310" />
            </Array>
          </mxGeometry>
        </mxCell>
        <mxCell id="zMyLwXSVM0SvXkapLOIX-61" value="" style="curved=1;endArrow=classic;html=1;rounded=0;entryX=0.5;entryY=1;entryDx=0;entryDy=0;exitX=1;exitY=0;exitDx=0;exitDy=0;" edge="1" parent="WIyWlLk6GJQsqaUBKTNV-1" source="zMyLwXSVM0SvXkapLOIX-5" target="zMyLwXSVM0SvXkapLOIX-60">
          <mxGeometry width="50" height="50" relative="1" as="geometry">
            <mxPoint x="456" y="292" as="sourcePoint" />
            <mxPoint x="496" y="208" as="targetPoint" />
            <Array as="points" />
          </mxGeometry>
        </mxCell>
        <mxCell id="zMyLwXSVM0SvXkapLOIX-60" value="&lt;em&gt;Capitulo&lt;/em&gt;" style="text;html=1;align=center;verticalAlign=middle;whiteSpace=wrap;rounded=0;" vertex="1" parent="WIyWlLk6GJQsqaUBKTNV-1">
          <mxGeometry x="390" y="240" width="90" height="30" as="geometry" />
        </mxCell>
        <mxCell id="zMyLwXSVM0SvXkapLOIX-63" value="" style="curved=1;endArrow=classic;html=1;rounded=0;entryX=0.5;entryY=0;entryDx=0;entryDy=0;exitX=0;exitY=1;exitDx=0;exitDy=0;" edge="1" parent="WIyWlLk6GJQsqaUBKTNV-1" source="t5OOmihuEX9ziYq8HS8Y-7" target="zMyLwXSVM0SvXkapLOIX-62">
          <mxGeometry width="50" height="50" relative="1" as="geometry">
            <mxPoint x="468" y="198" as="sourcePoint" />
            <mxPoint x="414" y="280" as="targetPoint" />
            <Array as="points">
              <mxPoint x="440" y="198" />
            </Array>
          </mxGeometry>
        </mxCell>
        <mxCell id="zMyLwXSVM0SvXkapLOIX-62" value="&lt;em&gt;Contenido/&lt;br&gt;Cuestionarios&lt;/em&gt;" style="text;html=1;align=center;verticalAlign=middle;whiteSpace=wrap;rounded=0;" vertex="1" parent="WIyWlLk6GJQsqaUBKTNV-1">
          <mxGeometry x="325" y="210" width="90" height="30" as="geometry" />
        </mxCell>
        <mxCell id="zMyLwXSVM0SvXkapLOIX-64" value="&lt;em&gt;Contenido&lt;/em&gt;" style="text;html=1;align=center;verticalAlign=middle;whiteSpace=wrap;rounded=0;" vertex="1" parent="WIyWlLk6GJQsqaUBKTNV-1">
          <mxGeometry x="390" y="410" width="80" height="30" as="geometry" />
        </mxCell>
        <mxCell id="zMyLwXSVM0SvXkapLOIX-65" value="&lt;em&gt;Capitulo&lt;/em&gt;" style="text;html=1;align=center;verticalAlign=middle;whiteSpace=wrap;rounded=0;" vertex="1" parent="WIyWlLk6GJQsqaUBKTNV-1">
          <mxGeometry x="310" y="420" width="80" height="30" as="geometry" />
        </mxCell>
      </root>
    </mxGraphModel>
  </diagram>
</mxfile>
